DBRep_DrawableShape

CASCADE Topology V1, (c) Matra-Datavision
Locations 0
Curve2ds 56
1 0 12 1 0 
2 0 0 1 0 -0 1 40
1 6.2831853071795862 -0 0 1 
1 0 -0 0 1 
1 0 0 1 0 
2 0 0 1 0 -0 1 40
2 -15.500000000000014 -26.84678751731759 1 0 -0 1 3.5
1 0 13 1 0 
2 15.500000000000004 -26.846787517317598 1 0 -0 1 3.5
1 0 13 1 0 
2 -31 3.7964050773567951e-15 1 0 -0 1 3.5
1 0 13 1 0 
2 -15.499999999999995 26.846787517317601 1 0 -0 1 3.5
1 0 13 1 0 
2 0 0 1 0 -0 1 22
1 0 12 1 0 
2 31 0 1 0 -0 1 3.5
1 0 13 1 0 
2 15.500000000000004 26.846787517317598 1 0 -0 1 3.5
1 0 13 1 0 
2 -15.500000000000014 -26.84678751731759 1 0 -0 1 3.5
1 0 1 1 0 
2 15.500000000000004 -26.846787517317598 1 0 -0 1 3.5
1 0 1 1 0 
2 -31 3.7964050773567951e-15 1 0 -0 1 3.5
1 0 1 1 0 
2 -15.499999999999995 26.846787517317601 1 0 -0 1 3.5
1 0 1 1 0 
1 0 0 1 0 
2 0 0 1 0 -0 1 22
2 31 0 1 0 -0 1 3.5
1 0 1 1 0 
2 15.500000000000004 26.846787517317598 1 0 -0 1 3.5
1 0 1 1 0 
1 6.2831853071795862 -0 0 1 
1 0 -0 0 1 
1 6.2831853071795862 -0 0 1 
1 0 -0 0 1 
1 6.2831853071795862 -0 0 1 
1 0 -0 0 1 
1 6.2831853071795862 -0 0 1 
1 0 -0 0 1 
1 6.2831853071795862 -0 0 1 
1 0 -0 0 1 
1 0 34 1 0 
2 0 0 1 0 -0 1 22
1 6.2831853071795862 -0 0 1 
1 0 -0 0 1 
1 6.2831853071795862 -0 0 1 
1 0 -0 0 1 
2 0 0 1 0 -0 1 12
1 0 1 1 0 
2 0 0 1 0 -0 1 12
1 0 35 1 0 
1 6.2831853071795862 -0 0 1 
1 0 -0 0 1 
Curves 28
2 0 0 12 0 0 1 1 0 -0 -0 1 0 40
1 40 -9.7971743931788261e-15 0 0 0 1 
2 0 0 0 0 0 1 1 0 -0 -0 1 0 40
2 -15.500000000000014 -26.84678751731759 12 0 0 1 1 0 -0 -0 1 0 3.5
2 15.500000000000004 -26.846787517317598 12 0 0 1 1 0 -0 -0 1 0 3.5
2 -31 3.7964050773567951e-15 12 0 0 1 1 0 -0 -0 1 0 3.5
2 -15.499999999999995 26.846787517317601 12 0 0 1 1 0 -0 -0 1 0 3.5
2 0 0 12 0 0 1 1 0 -0 -0 1 0 22
2 31 0 12 0 0 1 1 0 -0 -0 1 0 3.5
2 15.500000000000004 26.846787517317598 12 0 0 1 1 0 -0 -0 1 0 3.5
2 -15.500000000000014 -26.84678751731759 0 0 0 1 1 0 -0 -0 1 0 3.5
2 15.500000000000004 -26.846787517317598 0 0 0 1 1 0 -0 -0 1 0 3.5
2 -31 3.7964050773567951e-15 0 0 0 1 1 0 -0 -0 1 0 3.5
2 -15.499999999999995 26.846787517317601 0 0 0 1 1 0 -0 -0 1 0 3.5
2 0 0 0 0 0 1 1 0 -0 -0 1 0 22
2 31 0 0 0 0 1 1 0 -0 -0 1 0 3.5
2 15.500000000000004 26.846787517317598 0 0 0 1 1 0 -0 -0 1 0 3.5
1 -12.000000000000014 -26.84678751731759 -1 0 0 1 
1 19.000000000000004 -26.846787517317598 -1 0 0 1 
1 -27.5 2.9391523179536499e-15 -1 0 0 1 
1 -11.999999999999995 26.846787517317601 -1 0 0 1 
1 22 -5.3884459162483544e-15 0 0 0 1 
2 0 0 34 0 0 1 1 0 -0 -0 1 0 22
1 34.5 -8.5725275940314761e-16 -1 0 0 1 
1 19.000000000000004 26.846787517317598 -1 0 0 1 
2 0 0 0 0 0 1 1 0 -0 -0 1 0 12
2 0 0 34 0 0 1 1 0 -0 -0 1 0 12
1 12 -2.9391523179536475e-15 -1 0 0 1 
Polygon3D 0
PolygonOnTriangulations 0
Surfaces 13
2 0 0 0 0 0 1 1 0 -0 -0 1 0 40
1 0 0 12 0 0 1 1 0 -0 -0 1 0 
1 0 0 0 0 0 1 1 0 -0 -0 1 0 
2 -15.500000000000014 -26.84678751731759 -1 0 0 1 1 0 -0 -0 1 0 3.5
2 15.500000000000004 -26.846787517317598 -1 0 0 1 1 0 -0 -0 1 0 3.5
2 -31 3.7964050773567951e-15 -1 0 0 1 1 0 -0 -0 1 0 3.5
2 -15.499999999999995 26.846787517317601 -1 0 0 1 1 0 -0 -0 1 0 3.5
2 0 0 0 0 0 1 1 0 -0 -0 1 0 22
2 31 0 -1 0 0 1 1 0 -0 -0 1 0 3.5
2 15.500000000000004 26.846787517317598 -1 0 0 1 1 0 -0 -0 1 0 3.5
1 0 0 0 0 0 1 1 0 -0 -0 1 0 
1 0 0 34 0 0 1 1 0 -0 -0 1 0 
2 0 0 -1 0 0 1 1 0 -0 -0 1 0 12
Triangulations 0

TShapes 99
Ve
1e-07
40 -9.79717439317883e-15 12
0 0

0101101
*
Ed
 1e-07 1 1 0
1  1 0 0 6.28318530717959
2  1 1 0 0 6.28318530717959
2  2 2 0 0 6.28318530717959
0

0101000
+99 0 -99 0 *
Ve
1e-07
40 -9.79717439317883e-15 0
0 0

0101101
*
Ed
 1e-07 1 1 0
1  2 0 0 12
3  3 4CN 1 0 0 12
0

0101000
-99 0 +97 0 *
Ed
 1e-07 1 1 0
1  3 0 0 6.28318530717959
2  5 1 0 0 6.28318530717959
2  6 3 0 0 6.28318530717959
0

0101000
+97 0 -97 0 *
Wi

0101100
-98 0 +96 0 +95 0 -96 0 *
Fa
0  1e-07 1 0

0111000
+94 0 *
Wi

0101100
+98 0 *
Ve
1e-07
-12 -26.8467875173176 12
0 0

0101101
*
Ed
 1e-07 1 1 0
1  4 0 0 6.28318530717959
2  7 2 0 0 6.28318530717959
2  8 4 0 0 6.28318530717959
0

0101100
+91 0 -91 0 *
Wi

0101100
-90 0 *
Ve
1e-07
19 -26.8467875173176 12
0 0

0101101
*
Ed
 1e-07 1 1 0
1  5 0 0 6.28318530717959
2  9 2 0 0 6.28318530717959
2  10 5 0 0 6.28318530717959
0

0101100
+88 0 -88 0 *
Wi

0101100
-87 0 *
Ve
1.00000000857253e-07
-27.5 2.93915231795365e-15 12
0 0

0101101
*
Ed
 1e-07 1 1 0
1  6 0 0 6.28318530717959
2  11 2 0 0 6.28318530717959
2  12 6 0 0 6.28318530717959
0

0101100
+85 0 -85 0 *
Wi

0101100
-84 0 *
Ve
1e-07
-12 26.8467875173176 12
0 0

0101101
*
Ed
 1e-07 1 1 0
1  7 0 0 6.28318530717959
2  13 2 0 0 6.28318530717959
2  14 7 0 0 6.28318530717959
0

0101100
+82 0 -82 0 *
Wi

0101100
-81 0 *
Ve
1.00000005388446e-07
22 -5.38844591624835e-15 12
0 0

0101101
*
Ed
 1e-07 1 1 0
1  8 0 0 6.28318530717959
2  15 2 0 0 6.28318530717959
2  16 8 0 0 6.28318530717959
0

0101100
+79 0 -79 0 *
Wi

0101100
-78 0 *
Ve
1.00000000857253e-07
34.5 -8.57252759403148e-16 12
0 0

0101101
*
Ed
 1e-07 1 1 0
1  9 0 0 6.28318530717959
2  17 2 0 0 6.28318530717959
2  18 9 0 0 6.28318530717959
0

0101100
+76 0 -76 0 *
Wi

0101100
-75 0 *
Ve
1e-07
19 26.8467875173176 12
0 0

0101101
*
Ed
 1e-07 1 1 0
1  10 0 0 6.28318530717959
2  19 2 0 0 6.28318530717959
2  20 10 0 0 6.28318530717959
0

0101100
+73 0 -73 0 *
Wi

0101100
-72 0 *
Fa
0  1e-07 2 0

0101000
+92 0 +89 0 +86 0 +83 0 +80 0 +77 0 +74 0 +71 0 *
Wi

0101100
+95 0 *
Ve
1e-07
-12 -26.8467875173176 0
0 0

0101101
*
Ed
 1e-07 1 1 0
1  11 0 0 6.28318530717959
2  21 3 0 0 6.28318530717959
2  22 4 0 0 6.28318530717959
0

0101100
+68 0 -68 0 *
Wi

0101100
-67 0 *
Ve
1e-07
19 -26.8467875173176 0
0 0

0101101
*
Ed
 1e-07 1 1 0
1  12 0 0 6.28318530717959
2  23 3 0 0 6.28318530717959
2  24 5 0 0 6.28318530717959
0

0101100
+65 0 -65 0 *
Wi

0101100
-64 0 *
Ve
1.00000000857253e-07
-27.5 2.93915231795365e-15 0
0 0

0101101
*
Ed
 1e-07 1 1 0
1  13 0 0 6.28318530717959
2  25 3 0 0 6.28318530717959
2  26 6 0 0 6.28318530717959
0

0101100
+62 0 -62 0 *
Wi

0101100
-61 0 *
Ve
1e-07
-12 26.8467875173176 0
0 0

0101101
*
Ed
 1e-07 1 1 0
1  14 0 0 6.28318530717959
2  27 3 0 0 6.28318530717959
2  28 7 0 0 6.28318530717959
0

0101100
+59 0 -59 0 *
Wi

0101100
-58 0 *
Ve
1e-07
22 -5.38844591624835e-15 0
0 0

0101101
*
Ed
 1e-07 1 1 0
1  15 0 0 6.28318530717959
2  29 8 0 0 6.28318530717959
2  30 11 0 0 6.28318530717959
0

0101000
+56 0 -56 0 *
Wi

0101100
-55 0 *
Ve
1.00000000857253e-07
34.5 -8.57252759403148e-16 0
0 0

0101101
*
Ed
 1e-07 1 1 0
1  16 0 0 6.28318530717959
2  31 3 0 0 6.28318530717959
2  32 9 0 0 6.28318530717959
0

0101100
+53 0 -53 0 *
Wi

0101100
-52 0 *
Ve
1e-07
19 26.8467875173176 0
0 0

0101101
*
Ed
 1e-07 1 1 0
1  17 0 0 6.28318530717959
2  33 3 0 0 6.28318530717959
2  34 10 0 0 6.28318530717959
0

0101100
+50 0 -50 0 *
Wi

0101100
-49 0 *
Fa
0  1e-07 3 0

0101000
+69 0 +66 0 +63 0 +60 0 +57 0 +54 0 +51 0 +48 0 *
Ed
 1e-07 1 1 0
1  18 0 1 13
3  35 36CN 4 0 1 13
0

0101000
+68 0 -91 0 *
Wi

0101100
-90 0 +46 0 +67 0 -46 0 *
Fa
0  1e-07 4 0

0101000
+45 0 *
Ed
 1e-07 1 1 0
1  19 0 1 13
3  37 38CN 5 0 1 13
0

0101000
+65 0 -88 0 *
Wi

0101100
-87 0 +43 0 +64 0 -43 0 *
Fa
0  1e-07 5 0

0101000
+42 0 *
Ed
 1e-07 1 1 0
1  20 0 1 13
3  39 40CN 6 0 1 13
0

0101000
+62 0 -85 0 *
Wi

0101100
-84 0 +40 0 +61 0 -40 0 *
Fa
0  1e-07 6 0

0101000
+39 0 *
Ed
 1e-07 1 1 0
1  21 0 1 13
3  41 42CN 7 0 1 13
0

0101000
+59 0 -82 0 *
Wi

0101100
-81 0 +37 0 +58 0 -37 0 *
Fa
0  1e-07 7 0

0101000
+36 0 *
Ve
1e-07
22 -5.38844591624835e-15 34
0 0

0101101
*
Ed
 1e-07 1 1 0
1  22 0 12 34
3  43 44CN 8 0 12 34
0

0101000
+79 0 -34 0 *
Ed
 1e-07 1 1 0
1  23 0 0 6.28318530717959
2  45 8 0 0 6.28318530717959
2  46 12 0 0 6.28318530717959
0

0101000
+34 0 -34 0 *
Wi

0101100
+33 0 +78 0 -33 0 -32 0 *
Fa
0  1e-07 8 0

0101000
+31 0 *
Ed
 1e-07 1 1 0
1  24 0 1 13
3  47 48CN 9 0 1 13
0

0101000
+53 0 -76 0 *
Wi

0101100
-75 0 +29 0 +52 0 -29 0 *
Fa
0  1e-07 9 0

0101000
+28 0 *
Ed
 1e-07 1 1 0
1  25 0 1 13
3  49 50CN 10 0 1 13
0

0101000
+50 0 -73 0 *
Wi

0101100
-72 0 +26 0 +49 0 -26 0 *
Fa
0  1e-07 10 0

0101000
+25 0 *
Wi

0101100
+55 0 *
Ve
1.00000002939152e-07
12 -2.93915231795365e-15 0
0 0

0101101
*
Ed
 1e-07 1 1 0
1  26 0 0 6.28318530717959
2  51 3 0 0 6.28318530717959
2  52 13 0 0 6.28318530717959
0

0101100
+22 0 -22 0 *
Wi

0101100
-21 0 *
Fa
0  1e-07 3 0

0101000
+23 0 +20 0 *
Wi

0101100
+32 0 *
Ve
1.00000002939152e-07
12 -2.93915231795365e-15 34
0 0

0101101
*
Ed
 1e-07 1 1 0
1  27 0 0 6.28318530717959
2  53 12 0 0 6.28318530717959
2  54 13 0 0 6.28318530717959
0

0101100
+17 0 -17 0 *
Wi

0101100
-16 0 *
Fa
0  1e-07 12 0

0101000
+18 0 +15 0 *
Ed
 1e-07 1 1 0
1  28 0 1 35
3  55 56CN 13 0 1 35
0

0101000
+22 0 -17 0 *
Wi

0101100
-16 0 +13 0 +21 0 -13 0 *
Fa
0  1e-07 13 0

0101000
+12 0 *
Sh

0101100
+93 0 +70 0 -47 0 -44 0 -41 0 -38 0 -35 0 +30 0 -27 0 -24 0 
-19 0 +14 0 -11 0 *
So

0100000
+10 0 *
Co

0100000
+9 0 *
Co

0100000
+8 0 *
Co

0100000
+7 0 *
Co

0100000
+6 0 *
Co

0100000
+5 0 *
Co

0100000
+4 0 *
Co

0100000
+3 0 *
Co

1100000
+2 0 *

+1 0 