DBRep_DrawableShape

CASCADE Topology V1, (c) Matra-Datavision
Locations 0
Curve2ds 50
1 0 0 1 0 
1 0 0 1 0 
1 100 0 0 -1 
1 0 0 0 1 
1 0 -12 1 0 
1 0 0 1 0 
1 0 0 0 -1 
1 0 0 0 1 
1 0 0 0 1 
1 0 0 1 0 
1 0 0 1 0 
1 0 12 1 0 
1 100 0 0 1 
1 0 0 1 0 
1 100 0 0 1 
1 0 12 1 0 
1 100 0 0 -1 
1 12 0 0 1 
1 100 0 0 -1 
1 0 0 0 1 
1 0 -60 1 0 
1 0 0 1 0 
1 0 0 0 -1 
1 0 0 0 1 
1 0 0 0 1 
1 0 12 1 0 
1 0 0 0 -1 
1 12 0 0 1 
1 0 0 1 0 
1 0 60 1 0 
1 100 0 0 1 
1 0 60 1 0 
1 100 0 0 -1 
1 60 0 0 1 
2 36 6 1 0 -0 1 5
1 0 101 1 0 
1 0 0 0 1 
1 0 60 1 0 
1 0 -60 1 0 
1 0 12 1 0 
1 0 0 0 -1 
1 60 0 0 1 
2 36 6 1 0 -0 1 5
1 0 1 1 0 
1 0 -12 1 0 
1 0 60 1 0 
8 -100 0
1 0 12 -1 0 
8 -100 0
1 0 -12 -1 -0 
1 6.2831853071795862 -0 0 1 
1 0 -0 0 1 
Curves 25
1 -30 -30 0 0 0 1 
1 -30 -30 100 -0 1 0 
1 -30 -18 0 0 0 1 
1 -30 -30 0 -0 1 0 
1 -30 -30 0 1 0 -0 
1 -18 -30 0 0 0 1 
1 -30 -30 100 1 0 -0 
1 -30 -18 100 1 0 -0 
1 -18 -30 100 -0 1 0 
1 -30 -30 100 -0 1 0 
1 -30 30 0 0 0 1 
1 -30 -30 0 -0 1 0 
1 -30 -18 0 1 0 -0 
1 -18 -30 0 -0 1 0 
1 30 -30 0 0 0 1 
1 -30 30 100 1 0 -0 
1 30 -30 100 -0 1 0 
2 6 -24 100 0 0 1 1 0 -0 -0 1 0 5
1 -30 30 0 1 0 -0 
1 -18 30 0 0 0 1 
1 30 -30 0 -0 1 0 
2 6 -24 0 0 0 1 1 0 -0 -0 1 0 5
1 30 -18 0 0 0 1 
1 -18 -18 0 -0 0 -1 
1 11 -24.000000000000004 -1 0 0 1 
Polygon3D 0
PolygonOnTriangulations 0
Surfaces 13
1 -30 -30 0 1 0 -0 0 0 1 0 -1 0 
1 -30 -30 0 -0 1 0 0 0 1 1 0 -0 
1 -30 -30 100 0 0 1 1 0 -0 -0 1 0 
1 -30 -18 0 -0 1 0 0 0 1 1 0 -0 
1 -30 -30 0 0 0 1 1 0 -0 -0 1 0 
1 -18 -30 0 1 0 -0 0 0 1 0 -1 0 
1 -30 -30 0 -0 1 0 0 0 1 1 0 -0 
1 -30 -30 100 0 0 1 1 0 -0 -0 1 0 
1 -30 -30 0 1 0 -0 0 0 1 0 -1 0 
1 -30 30 0 -0 1 0 0 0 1 1 0 -0 
1 -30 -30 0 0 0 1 1 0 -0 -0 1 0 
1 30 -30 0 1 0 -0 0 0 1 0 -1 0 
2 6 -24 -1 0 0 1 1 0 -0 -0 1 0 5
Triangulations 0

TShapes 85
Ve
1e-07
-30 -30 0
0 0

0101101
*
Ve
1e-07
-30 -30 100
0 0

0101101
*
Ed
 1e-07 1 1 0
1  1 0 0 100
2  1 1 0 0 100
2  2 2 0 0 100
0

0101000
+85 0 -84 0 *
Ve
1e-07
-30 -18 100
0 0

0101101
*
Ed
 1e-07 1 1 0
1  2 0 0 12
2  3 1 0 0 12
2  4 3 0 0 12
0

0101000
+84 0 -82 0 *
Ve
1e-07
-30 -18 0
0 0

0101101
*
Ed
 1e-07 1 1 0
1  3 0 0 100
2  5 1 0 0 100
2  6 4 0 0 100
0

0101000
+80 0 -82 0 *
Ed
 1e-07 1 1 0
1  4 0 0 12
2  7 1 0 0 12
2  8 5 0 0 12
0

0101000
+85 0 -80 0 *
Wi

0101100
-83 0 -81 0 +79 0 +78 0 *
Fa
0  1e-07 1 0

0101000
+77 0 *
Ve
1e-07
-18 -30 0
0 0

0101101
*
Ed
 1e-07 1 1 0
1  5 0 0 12
2  9 2 0 0 12
2  10 5 0 0 12
0

0101000
+85 0 -75 0 *
Ve
1e-07
-18 -30 100
0 0

0101101
*
Ed
 1e-07 1 1 0
1  6 0 0 100
2  11 6 0 0 100
2  12 7 0 0 100
0

0101000
+75 0 -73 0 *
Ed
 1e-07 1 1 0
1  7 0 0 12
2  13 2 0 0 12
2  14 3 0 0 12
0

0101000
+84 0 -73 0 *
Wi

0101100
-74 0 -72 0 +71 0 +83 0 *
Fa
0  1e-07 2 0

0101000
+70 0 *
Ve
1.5e-07
-18 -18 100
0 0

0101101
*
Ed
 1e-07 1 1 0
1  8 0 0 12
2  15 4 0 0 12
2  16 3 0 0 12
0

0101000
+82 0 -68 0 *
Ed
 1e-07 1 1 0
1  9 0 0 12
2  17 6 0 0 12
2  18 8 0 0 12
0

0101000
+73 0 -68 0 *
Wi

0101100
-81 0 -67 0 +66 0 +71 0 *
Fa
0  1e-07 3 0

0101000
+65 0 *
Ve
1e-07
-30 30 100
0 0

0101101
*
Ed
 1e-07 1 1 0
1  10 0 12 60
2  19 9 0 12 60
2  20 8 0 12 60
0

0101000
+82 0 -63 0 *
Ve
1e-07
-30 30 0
0 0

0101101
*
Ed
 1e-07 1 1 0
1  11 0 0 100
2  21 9 0 0 100
2  22 10 0 0 100
0

0101000
-63 0 +61 0 *
Ed
 1e-07 1 1 0
1  12 0 12 60
2  23 9 0 12 60
2  24 11 0 12 60
0

0101000
+80 0 -61 0 *
Wi

0101100
-79 0 -62 0 +60 0 +59 0 *
Fa
0  1e-07 9 0

0101000
+58 0 *
Ve
1.5e-07
-18 -18 0
0 0

0101101
*
Ed
 1e-07 1 1 0
1  13 0 0 12
2  25 4 0 0 12
2  26 5 0 0 12
0

0101000
+80 0 -56 0 *
Ed
 1e-07 1 1 0
1  14 0 0 12
2  27 6 0 0 12
2  28 11 0 0 12
0

0101000
+75 0 -56 0 *
Wi

0101100
-78 0 -55 0 +54 0 +74 0 *
Fa
0  1e-07 5 0

0101000
+53 0 *
Ve
1e-07
30 -30 0
0 0

0101101
*
Ed
 1e-07 1 1 0
1  5 0 12 60
2  9 2 0 12 60
2  10 5 0 12 60
0

0101000
+75 0 -51 0 *
Ve
1e-07
30 -30 100
0 0

0101101
*
Ed
 1e-07 1 1 0
1  15 0 0 100
2  29 12 0 0 100
2  30 2 0 0 100
0

0101000
-49 0 +51 0 *
Ed
 1e-07 1 1 0
1  7 0 12 60
2  13 2 0 12 60
2  14 3 0 12 60
0

0101000
+73 0 -49 0 *
Wi

0101100
-50 0 -48 0 +47 0 +72 0 *
Fa
0  1e-07 2 0

0101000
+46 0 *
Ve
1e-07
-18 30 100
0 0

0101101
*
Ed
 1e-07 1 1 0
1  16 0 0 12
2  31 10 0 0 12
2  32 8 0 0 12
0

0101000
-44 0 +63 0 *
Ed
 1e-07 1 1 0
1  9 0 12 60
2  17 6 0 12 60
2  18 8 0 12 60
0

0101000
+68 0 -44 0 *
Wi

0101100
-62 0 -43 0 +42 0 +67 0 *
Fa
0  1e-07 8 0

0101000
+41 0 *
Ve
1e-07
30 -18 100
0 0

0101101
*
Ed
 1e-07 1 1 0
1  8 0 12 60
2  15 4 0 12 60
2  16 3 0 12 60
0

0101000
+68 0 -39 0 *
Ed
 1e-07 1 1 0
1  17 0 0 12
2  33 12 0 0 12
2  34 3 0 0 12
0

0101000
-39 0 +49 0 *
Wi

0101100
-66 0 +47 0 -38 0 +37 0 *
Ve
1.00000003552714e-07
11 -24 100
0 0

0101101
*
Ed
 1e-07 1 1 0
1  18 0 0 6.28318530717959
2  35 3 0 0 6.28318530717959
2  36 13 0 0 6.28318530717959
0

0101100
+35 0 -35 0 *
Wi

0101100
-34 0 *
Fa
0  1e-07 3 0

0101000
+36 0 +33 0 *
Ve
1e-07
-18 30 0
0 0

0101101
*
Ed
 1e-07 1 1 0
1  19 0 0 12
2  37 10 0 0 12
2  38 11 0 0 12
0

0101000
-31 0 +61 0 *
Ed
 1e-07 1 1 0
1  20 0 0 100
2  39 6 0 0 100
2  40 10 0 0 100
0

0101000
-44 0 +31 0 *
Wi

0101100
-30 0 -29 0 +43 0 +60 0 *
Fa
0  1e-07 10 0

0111000
+28 0 *
Ed
 1e-07 1 1 0
1  14 0 12 60
2  27 6 0 12 60
2  28 11 0 12 60
0

0101000
+56 0 -31 0 *
Wi

0101100
-59 0 -30 0 +26 0 +55 0 *
Fa
0  1e-07 11 0

0101000
+25 0 *
Ve
1e-07
30 -18 0
0 0

0101101
*
Ed
 1e-07 1 1 0
1  13 0 12 60
2  25 4 0 12 60
2  26 5 0 12 60
0

0101000
+56 0 -23 0 *
Ed
 1e-07 1 1 0
1  21 0 0 12
2  41 12 0 0 12
2  42 5 0 0 12
0

0101000
-23 0 +51 0 *
Wi

0101100
-54 0 +50 0 -22 0 +21 0 *
Ve
1.00000003552714e-07
11 -24 0
0 0

0101101
*
Ed
 1e-07 1 1 0
1  22 0 0 6.28318530717959
2  43 5 0 0 6.28318530717959
2  44 13 0 0 6.28318530717959
0

0101100
+19 0 -19 0 *
Wi

0101100
-18 0 *
Fa
0  1e-07 5 0

0101000
+20 0 +17 0 *
Ed
 1e-07 1 1 0
1  23 0 0 100
2  45 12 0 0 100
2  46 4 0 0 100
0

0101000
-39 0 +23 0 *
Wi

0101100
-48 0 -37 0 +15 0 +21 0 *
Fa
0  1e-07 12 0

0111000
+14 0 *
Ed
 1.5e-07 1 1 0
1  24 0 -100 0
2  47 4 0 -100 0
2  48 6 0 -100 0
0

0101000
+68 0 -56 0 *
Wi

0101100
+12 0 -42 0 +29 0 +26 0 *
Fa
0  1e-07 6 0

0101000
+11 0 *
Wi

0101100
-22 0 -15 0 +38 0 -12 0 *
Fa
0  1e-07 4 0

0101000
+9 0 *
Ed
 1e-07 1 1 0
1  25 0 1 101
3  49 50CN 13 0 1 101
0

0101000
+19 0 -35 0 *
Wi

0101100
-34 0 +7 0 +18 0 -7 0 *
Fa
0  1e-07 13 0

0101000
+6 0 *
Sh

0101100
-76 0 -69 0 +64 0 -57 0 -52 0 -45 0 +40 0 +32 0 +27 0 -24 0 
-16 0 +13 0 +10 0 +8 0 -5 0 *
So

0100000
+4 0 *
Co

0100000
+3 0 *
Co

1100000
+2 0 *

+1 0 