DBRep_DrawableShape

CASCADE Topology V1, (c) Matra-Datavision
Locations 0
Curve2ds 42
1 0 40 1 0 
2 0 0 1 0 -0 1 12
1 6.2831853071795862 -0 0 1 
1 0 -0 0 1 
1 0 0 1 0 
2 0 0 1 0 -0 1 12
1 0 0 1 0 
2 0 0 1 0 -0 1 16
1 6.2831853071795862 -0 0 1 
1 0 -0 0 1 
1 0 30 1 0 
2 0 0 1 0 -0 1 16
8 4.2000000000000028 25.799999999999997
1 1.8234765819369754 0 0 1 
8 4.2000000000000028 25.799999999999997
1 -6 -3.4919333848296681 1 0 
1 0 24 1 0 
2 4 -12 1 0 -0 1 16
8 4.2000000000000028 25.799999999999997
1 1.318116071652818 0 0 1 
8 4.2000000000000028 25.799999999999997
1 -6 -3.4919333848296681 1 0 
1 0 6 1 0 
2 4 -12 1 0 -0 1 16
1 0 0 1 0 
2 0 0 1 0 -0 1 12
1 18 0 0 -1 
1 0 0 0 1 
1 0 0 0 -1 
1 0 0 0 1 
1 0 0 1 0 
1 0 0 1 0 
1 18 0 0 -1 
1 8 0 0 1 
1 18 0 0 1 
1 0 0 1 0 
1 0 0 0 -1 
1 8 0 0 1 
1 0 0 1 0 
1 0 8 1 0 
1 0 0 0 1 
1 0 0 1 0 
1 0 40 1 0 
2 0 0 1 0 -0 1 12
1 6.2831853071795862 -0 0 1 
1 0 -0 0 1 
Curves 21
2 0 0 40 0 0 1 1 0 -0 -0 1 0 12
1 12 -2.9391523179536475e-15 0 0 0 1 
2 0 0 0 0 0 1 1 0 -0 -0 1 0 12
2 0 0 40 0 0 1 1 0 -0 -0 1 0 16
1 16 -3.9188697572715303e-15 40 0 0 1 
2 0 0 70 0 0 1 1 0 -0 -0 1 0 16
1 -4 15.491933384829668 40 0 0 1 
2 0 0 64 0 0 1 1 0 -0 -0 1 0 16
1 4 15.491933384829668 40 0 0 1 
2 0 0 46 0 0 1 1 0 -0 -0 1 0 16
2 0 0 70 0 0 1 1 0 -0 -0 1 0 12
1 -4 12 64 -0 1 0 
1 -4 12 46 -0 1 0 
1 -4 12 46 0 0 1 
1 4 12 64 -0 1 0 
1 -4 12 64 1 0 -0 
1 4 12 46 -0 1 0 
1 4 12 46 0 0 1 
1 -4 12 46 1 0 -0 
2 0 0 110 0 0 1 1 0 -0 -0 1 0 12
1 12 -2.9391523179536475e-15 70 0 0 1 
Polygon3D 0
PolygonOnTriangulations 0
Surfaces 14
2 0 0 0 0 0 1 1 0 -0 -0 1 0 12
1 0 0 40 0 0 1 1 0 -0 -0 1 0 
1 0 0 0 0 0 1 1 0 -0 -0 1 0 
1 0 0 40 0 0 1 1 0 -0 -0 1 0 
2 0 0 40 0 0 1 1 0 -0 -0 1 0 16
1 0 0 70 0 0 1 1 0 -0 -0 1 0 
1 -4 12 46 1 0 -0 0 0 1 0 -1 0 
1 -4 12 64 0 0 1 1 0 -0 -0 1 0 
1 4 12 46 1 0 -0 0 0 1 0 -1 0 
1 -4 12 46 0 0 1 1 0 -0 -0 1 0 
2 0 0 70 0 0 1 1 0 -0 -0 1 0 12
1 0 0 70 0 0 1 1 0 -0 -0 1 0 
1 -4 12 46 -0 1 0 0 0 1 1 0 -0 
1 0 0 110 0 0 1 1 0 -0 -0 1 0 
Triangulations 0

TShapes 66
Ve
1e-07
12 -2.93915231795365e-15 40
0 0

0101101
*
Ed
 1e-07 1 1 0
1  1 0 0 6.28318530717959
2  1 1 0 0 6.28318530717959
2  2 2 0 0 6.28318530717959
0

0101000
+66 0 -66 0 *
Ve
1e-07
12 -2.93915231795365e-15 0
0 0

0101101
*
Ed
 1e-07 1 1 0
1  2 0 0 40
3  3 4CN 1 0 0 40
0

0101000
+64 0 -66 0 *
Ed
 1e-07 1 1 0
1  3 0 0 6.28318530717959
2  5 1 0 0 6.28318530717959
2  6 3 0 0 6.28318530717959
0

0101000
+64 0 -64 0 *
Wi

0101100
-65 0 +63 0 +62 0 -63 0 *
Fa
0  1e-07 1 0

0101000
+61 0 *
Ve
1e-07
16 -3.91886975727153e-15 40
0 0

0101101
*
Ed
 1e-07 1 1 0
1  4 0 0 6.28318530717959
2  7 5 0 0 6.28318530717959
2  8 4 0 0 6.28318530717959
0

0101000
+59 0 -59 0 *
Wi

0101100
+58 0 *
Wi

0101100
-65 0 *
Fa
0  1e-07 4 0

0101000
+57 0 +56 0 *
Wi

0101100
-62 0 *
Fa
0  1e-07 3 0

0111000
-54 0 *
Ve
1e-07
16 -3.91886975727153e-15 70
0 0

0101101
*
Ed
 1e-07 1 1 0
1  5 0 0 30
3  9 10CN 5 0 0 30
0

0101000
-52 0 +59 0 *
Ed
 1e-07 1 1 0
1  6 0 0 6.28318530717959
2  11 5 0 0 6.28318530717959
2  12 6 0 0 6.28318530717959
0

0101000
+52 0 -52 0 *
Wi

0101100
+51 0 +58 0 -51 0 -50 0 *
Ve
1.00000001776357e-07
-4 15.4919333848297 46
0 0

0101101
*
Ve
1.00000001776357e-07
-4 15.4919333848297 64
0 0

0101101
*
Ed
 1e-07 1 1 0
1  7 0 6 24
2  13 5 0 6 24
2  14 7 0 6 24
0

0101000
+48 0 -47 0 *
Ve
1e-07
4 15.4919333848297 64
0 0

0101101
*
Ed
 1e-07 1 1 0
1  8 0 1.31811607165282 1.82347658193698
2  15 5 0 1.31811607165282 1.82347658193698
2  16 8 0 1.31811607165282 1.82347658193698
0

0101000
+45 0 -47 0 *
Ve
1e-07
4 15.4919333848297 46
0 0

0101101
*
Ed
 1e-07 1 1 0
1  9 0 6 24
2  17 5 0 6 24
2  18 9 0 6 24
0

0101000
+43 0 -45 0 *
Ed
 1e-07 1 1 0
1  10 0 1.31811607165282 1.82347658193698
2  19 5 0 1.31811607165282 1.82347658193698
2  20 10 0 1.31811607165282 1.82347658193698
0

0101000
+43 0 -48 0 *
Wi

0101100
-46 0 +44 0 +42 0 -41 0 *
Fa
0  1e-07 5 0

0101000
+49 0 +40 0 *
Wi

0101100
+50 0 *
Ve
1e-07
12 -2.93915231795365e-15 70
0 0

0101101
*
Ed
 1e-07 1 1 0
1  11 0 0 6.28318530717959
2  21 11 0 0 6.28318530717959
2  22 12 0 0 6.28318530717959
0

0101000
+37 0 -37 0 *
Wi

0101100
-36 0 *
Fa
0  1e-07 6 0

0101000
+38 0 +35 0 *
Ve
1e-07
-4 12 64
0 0

0101101
*
Ed
 1e-07 1 1 0
1  12 0 0 3.49193338482967
2  23 7 0 0 3.49193338482967
2  24 8 0 0 3.49193338482967
0

0101000
+33 0 -47 0 *
Ve
1e-07
-4 12 46
0 0

0101101
*
Ed
 1e-07 1 1 0
1  13 0 0 3.49193338482967
2  25 7 0 0 3.49193338482967
2  26 10 0 0 3.49193338482967
0

0101000
+31 0 -48 0 *
Ed
 1e-07 1 1 0
1  14 0 0 18
2  27 7 0 0 18
2  28 13 0 0 18
0

0101000
-33 0 +31 0 *
Wi

0101100
-32 0 +46 0 +30 0 -29 0 *
Fa
0  1e-07 7 0

0101000
+28 0 *
Ve
1e-07
4 12 64
0 0

0101101
*
Ed
 1e-07 1 1 0
1  15 0 0 3.49193338482967
2  29 9 0 0 3.49193338482967
2  30 8 0 0 3.49193338482967
0

0101000
+26 0 -45 0 *
Ed
 1e-07 1 1 0
1  16 0 0 8
2  31 13 0 0 8
2  32 8 0 0 8
0

0101000
-26 0 +33 0 *
Wi

0101100
-32 0 +44 0 +25 0 +24 0 *
Fa
0  1e-07 8 0

0101000
+23 0 *
Ve
1e-07
4 12 46
0 0

0101101
*
Ed
 1e-07 1 1 0
1  17 0 0 3.49193338482967
2  33 9 0 0 3.49193338482967
2  34 10 0 0 3.49193338482967
0

0101000
+21 0 -43 0 *
Ed
 1e-07 1 1 0
1  18 0 0 18
2  35 9 0 0 18
2  36 13 0 0 18
0

0101000
-26 0 +21 0 *
Wi

0101100
-25 0 +42 0 +20 0 -19 0 *
Fa
0  1e-07 9 0

0101000
+18 0 *
Ed
 1e-07 1 1 0
1  19 0 0 8
2  37 13 0 0 8
2  38 10 0 0 8
0

0101000
-21 0 +31 0 *
Wi

0101100
-30 0 +41 0 +20 0 +16 0 *
Fa
0  1e-07 10 0

0101000
+15 0 *
Ve
1e-07
12 -2.93915231795365e-15 110
0 0

0101101
*
Ed
 1e-07 1 1 0
1  20 0 0 6.28318530717959
2  39 11 0 0 6.28318530717959
2  40 14 0 0 6.28318530717959
0

0101000
+13 0 -13 0 *
Ed
 1e-07 1 1 0
1  21 0 0 40
3  41 42CN 11 0 0 40
0

0101000
+37 0 -13 0 *
Wi

0101100
-12 0 +11 0 +36 0 -11 0 *
Fa
0  1e-07 11 0

0101000
+10 0 *
Wi

0101100
-16 0 -19 0 +24 0 +29 0 *
Fa
0  1e-07 13 0

0111000
+8 0 *
Wi

0101100
+12 0 *
Fa
0  1e-07 14 0

0111000
+6 0 *
Sh

0101100
+60 0 -55 0 -53 0 +39 0 +34 0 +27 0 -22 0 -17 0 +14 0 +9 0 
+7 0 +5 0 *
So

0100000
+4 0 *
Co

0100000
+3 0 *
Co

1100000
+2 0 *

+1 0 